<svg width="24" height="13" viewBox="0 0 24 13" fill="none" xmlns="http://www.w3.org/2000/svg">
<path d="M2.69983 1.29976C2.30881 0.909734 1.67564 0.910539 1.28562 1.30156C0.895589 1.69258 0.896394 2.32575 1.28742 2.71577L2.69983 1.29976ZM22.7016 2.68853C23.0916 2.29751 23.0908 1.66435 22.6998 1.27432C22.3088 0.884294 21.6756 0.8851 21.2856 1.27612L22.7016 2.68853ZM1.28742 2.71577L10.5921 11.9968L12.0045 10.5808L2.69983 1.29976L1.28742 2.71577ZM13.4205 11.9932L22.7016 2.68853L21.2856 1.27612L12.0045 10.5808L13.4205 11.9932ZM10.5921 11.9968C11.3742 12.7769 12.6405 12.7753 13.4205 11.9932L12.0045 10.5808L12.0045 10.5808L10.5921 11.9968Z" fill="#333333"/>
</svg>
