<svg width="22" height="22" viewBox="0 0 22 22" fill="none" xmlns="http://www.w3.org/2000/svg">
<path d="M23 9.5V14.5C23 17 23 20.5 23 20.5H3V1H9H15" stroke="#44CC11" stroke-width="2" stroke-linecap="round" stroke-linejoin="round"/>
<path d="M8.40687 9.70938C8.24636 9.48467 7.93409 9.43263 7.70938 9.59313C7.48467 9.75364 7.43263 10.0659 7.59313 10.2906L8.40687 9.70938ZM13 17L12.5931 17.2906C12.697 17.436 12.8705 17.5149 13.0483 17.4977C13.2262 17.4804 13.3813 17.3695 13.4552 17.2069L13 17ZM18.4552 6.2069C18.5695 5.95551 18.4583 5.65909 18.2069 5.54482C17.9555 5.43055 17.6591 5.54171 17.5448 5.7931L18.4552 6.2069ZM7.59313 10.2906L12.5931 17.2906L13.4069 16.7094L8.40687 9.70938L7.59313 10.2906ZM13.4552 17.2069L18.4552 6.2069L17.5448 5.7931L12.5448 16.7931L13.4552 17.2069Z" fill="#44CC11"/>
</svg>
